<svg width="14" height="16" viewBox="0 0 14 16" fill="none" xmlns="http://www.w3.org/2000/svg">
<path d="M9.90425 5.11021L8.88925 4.09621L3.81425 9.17021C3.61438 9.37015 3.45584 9.6075 3.3477 9.8687C3.23955 10.1299 3.18392 10.4099 3.18396 10.6926C3.18401 10.9753 3.23974 11.2552 3.34797 11.5164C3.4562 11.7775 3.61481 12.0148 3.81475 12.2147C4.01469 12.4146 4.25204 12.5731 4.51324 12.6813C4.77445 12.7894 5.0544 12.845 5.3371 12.845C5.61981 12.845 5.89974 12.7892 6.16091 12.681C6.42208 12.5728 6.65938 12.4142 6.85925 12.2142L12.9493 6.12521C13.6221 5.45223 14.0001 4.53951 14 3.58786C13.9999 2.63621 13.6217 1.72357 12.9487 1.05071C12.2758 0.377859 11.363 -9.37508e-05 10.4114 1.74434e-08C9.45974 9.37856e-05 8.5471 0.378227 7.87425 1.05121L1.48025 7.44421L1.46625 7.45721C-0.48875 9.41221 -0.48875 12.5802 1.46625 14.5342C3.42125 16.4882 6.58925 16.4882 8.54425 14.5342L8.55725 14.5202L8.55825 14.5212L12.9233 10.1572L11.9082 9.14321L7.54325 13.5062L7.53025 13.5192C6.86039 14.1878 5.95265 14.5632 5.00625 14.5632C4.05985 14.5632 3.15211 14.1878 2.48225 13.5192C2.15021 13.1864 1.88712 12.7914 1.70807 12.3568C1.52901 11.9221 1.43751 11.4564 1.43881 10.9863C1.44011 10.5162 1.53419 10.051 1.71564 9.61736C1.8971 9.18371 2.16237 8.79014 2.49625 8.45921L2.49525 8.45821L8.89025 2.06521C9.72925 1.22521 11.0953 1.22521 11.9353 2.06521C12.7753 2.90521 12.7743 4.27021 11.9353 5.10921L5.84525 11.1982C5.70896 11.3236 5.52951 11.3914 5.34437 11.3876C5.15923 11.3838 4.98272 11.3086 4.85172 11.1777C4.72072 11.0468 4.64534 10.8704 4.64134 10.6853C4.63734 10.5001 4.70502 10.3206 4.83025 10.1842L9.90525 5.10921L9.90425 5.11021Z" fill="#929292"/>
</svg>
