<svg width="23" height="17" viewBox="0 0 23 17" fill="none" xmlns="http://www.w3.org/2000/svg">
<path d="M22.108 2.71942L22.5287 3.93066C22.9243 5.06184 22.365 6.29927 21.2229 6.81851L18.952 7.85278C17.9615 8.30378 16.8711 8.02051 16.0154 7.21809C14.8535 6.12815 14.0308 5.29791 14.0308 5.29791C12.7366 5.45228 11.4886 5.87444 10.3665 6.5375C9.0341 7.30676 8.24588 8.13852 7.46082 9.09109C7.46082 9.09109 7.75871 10.2261 8.13144 11.7699C8.37955 12.8005 8.42279 13.8039 7.55741 14.4262L5.54265 15.8768C5.05061 16.2275 4.45286 16.3983 3.84977 16.3605C3.24668 16.3227 2.67497 16.0786 2.2306 15.6691L1.27582 14.7679C0.81364 14.3404 0.47839 13.7936 0.306979 13.1878C0.135569 12.5819 0.134645 11.9406 0.30431 11.3343C1.1268 8.43463 3.90546 5.46382 8.27277 2.93535C12.648 0.402319 16.2089 -0.294053 19.3192 0.334975C20.628 0.599021 21.6894 1.52097 22.1067 2.72018L22.108 2.71942Z" fill="#E8B5B5"/>
</svg>
