<svg width="18" height="22" viewBox="0 0 18 22" fill="none" xmlns="http://www.w3.org/2000/svg">
<path fill-rule="evenodd" clip-rule="evenodd" d="M10.2316 0.362745C10.8636 -0.395255 12.0946 0.122745 11.9946 1.10475L11.2886 8.00275H16.9996C17.1896 8.00282 17.3757 8.05702 17.536 8.15902C17.6963 8.26101 17.8243 8.40657 17.9049 8.57865C17.9855 8.75073 18.0153 8.94221 17.991 9.13066C17.9667 9.31912 17.8892 9.49674 17.7676 9.64275L7.76763 21.6427C7.13563 22.4007 5.90463 21.8827 6.00463 20.9007L6.71063 14.0027H0.999626C0.809612 14.0027 0.62355 13.9485 0.46323 13.8465C0.30291 13.7445 0.174967 13.5989 0.0943826 13.4268C0.0137986 13.2548 -0.0160903 13.0633 0.00821571 12.8748C0.0325217 12.6864 0.110017 12.5087 0.231626 12.3627L10.2316 0.362745Z" fill="#FDE4E4"/>
</svg>
