<svg width="21" height="21" viewBox="0 0 21 21" fill="none" xmlns="http://www.w3.org/2000/svg">
<path d="M9.84252 4.95609C9.84252 5.66569 9.84662 6.37528 9.8417 7.08488C9.83187 8.65565 8.66506 9.83476 7.10329 9.84295C5.65707 9.85033 4.21084 9.84951 2.76461 9.84295C1.19466 9.8364 0.0155494 8.6663 0.00817489 7.10372C0.000800359 5.64356 -0.000838425 4.18341 0.00817489 2.72325C0.0171882 1.20328 1.1922 0.0192557 2.70479 0.00778423C4.17806 -0.00286787 5.65215 -0.00204848 7.12542 0.00696483C8.66178 0.0167975 9.83023 1.19918 9.8417 2.74455C9.84744 3.48201 9.84252 4.21946 9.84252 4.95609ZM8.52986 4.93643C8.52986 4.21291 8.53641 3.48938 8.52822 2.76668C8.5192 1.91041 7.93989 1.32619 7.08527 1.32127C5.65297 1.31308 4.21985 1.31472 2.78673 1.32045C1.90425 1.32455 1.32412 1.90222 1.32084 2.78389C1.31429 4.217 1.31347 5.65012 1.32084 7.08324C1.32494 7.93868 1.90835 8.52373 2.76297 8.52865C4.19527 8.53684 5.62839 8.53602 7.0615 8.52946C7.94399 8.52537 8.52002 7.94688 8.52822 7.06603C8.53477 6.35644 8.52986 5.64684 8.52986 4.93643Z" fill="#E8B5B5"/>
<path d="M20.9884 4.9667C20.9884 5.69023 20.995 6.41375 20.9868 7.13645C20.9704 8.65315 19.7954 9.83226 18.2795 9.84209C16.8063 9.85192 15.3322 9.85274 13.8589 9.84209C12.3439 9.83144 11.1639 8.65069 11.1541 7.13482C11.1443 5.66073 11.1443 4.18664 11.1541 2.71337C11.1639 1.1975 12.3447 0.0183928 13.8606 0.00774074C15.3338 -0.00209197 16.8079 -0.00209197 18.2812 0.00774074C19.7971 0.0175734 20.9712 1.1975 20.9868 2.71419C20.995 3.46476 20.9884 4.21614 20.9884 4.9667ZM16.0918 1.31877C15.3822 1.31877 14.6726 1.31549 13.963 1.31959C13.051 1.32532 12.4709 1.89316 12.4668 2.79449C12.461 4.21368 12.461 5.63369 12.4668 7.05288C12.47 7.93864 13.0444 8.5245 13.9204 8.5286C15.3527 8.53598 16.7858 8.53598 18.2189 8.5286C19.0784 8.5245 19.6676 7.94601 19.6733 7.09467C19.6823 5.64762 19.6823 4.20139 19.6733 2.75434C19.6684 1.903 19.0793 1.32778 18.2205 1.31959C17.5109 1.31303 16.8014 1.31877 16.0918 1.31877Z" fill="#E8B5B5"/>
<path d="M9.84244 16.0973C9.84244 16.834 9.85063 17.5714 9.8408 18.3081C9.82114 19.7994 8.64449 20.9793 7.15238 20.9908C5.66518 21.003 4.17798 21.003 2.69078 20.9908C1.20031 20.9785 0.020385 19.7944 0.00891354 18.3023C-0.00255795 16.8151 -0.00337735 15.3271 0.00891354 13.8399C0.0212044 12.3494 1.20441 11.1695 2.69652 11.1572C4.18372 11.1458 5.67091 11.1449 7.15811 11.1572C8.64859 11.1695 9.82277 12.3519 9.8408 13.8448C9.84981 14.5954 9.84244 15.3468 9.84244 16.0973ZM4.9056 19.6805C5.60127 19.6805 6.29775 19.683 6.99341 19.6797C7.95948 19.6756 8.5265 19.1176 8.52895 18.1606C8.53305 16.7684 8.53305 15.3763 8.52895 13.9841C8.5265 13.0451 7.96112 12.4715 7.03111 12.4691C5.62585 12.465 4.22059 12.465 2.81451 12.4691C1.90335 12.4724 1.32404 13.0435 1.32076 13.9464C1.31502 15.3656 1.31502 16.7856 1.32076 18.2048C1.32404 19.1053 1.90581 19.674 2.81779 19.6797C3.51345 19.6838 4.20912 19.6805 4.9056 19.6805Z" fill="#E8B5B5"/>
<path d="M20.9887 16.0654C20.992 18.7801 18.7821 20.9932 16.0691 20.9932C13.3577 20.9932 11.1486 18.7776 11.1527 16.0613C11.1568 13.3663 13.3593 11.1614 16.0527 11.1548C18.769 11.1482 20.9854 13.3532 20.9887 16.0654ZM16.0773 19.6798C18.0528 19.6773 19.6703 18.0631 19.676 16.0875C19.6818 14.0907 18.0602 12.4658 16.065 12.4675C14.0886 12.4699 12.4711 14.0841 12.4662 16.0589C12.4613 18.0565 14.0829 19.6822 16.0773 19.6798Z" fill="#E8B5B5"/>
</svg>
