<svg width="17" height="17" viewBox="0 0 17 17" fill="none" xmlns="http://www.w3.org/2000/svg">
<path d="M13.1898 6.1233C12.349 5.28247 11.5246 4.45739 10.6759 3.60803C10.6168 3.66378 10.5296 3.74118 10.4476 3.82382C7.6805 6.59028 4.91666 9.35937 2.14429 12.1199C1.79602 12.4669 1.62222 12.8506 1.64124 13.3458C1.66354 13.9334 1.64648 14.5231 1.64648 15.1251C2.4132 15.1251 3.16286 15.1494 3.90924 15.1101C4.12371 15.0989 4.34736 14.9264 4.53363 14.7847C4.94355 14.4706 5.42824 14.4732 5.73781 14.8234C6.04935 15.1763 6.00803 15.6669 5.62631 16.0191C5.0826 16.5215 4.43722 16.7878 3.69608 16.795C2.76737 16.8035 1.838 16.8002 0.909284 16.7963C0.33802 16.7937 0.00811612 16.471 0.00549263 15.9069C0.000901532 14.9671 -0.00500131 14.0272 0.00746025 13.0873C0.0179542 12.2577 0.36819 11.5782 0.951916 10.9958C4.09354 7.86202 7.22861 4.72236 10.3663 1.58467C10.6601 1.29084 10.9513 0.99504 11.2478 0.704489C12.2034 -0.233407 13.5473 -0.235375 14.4976 0.701866C15.0269 1.22394 15.551 1.74995 16.0743 2.27793C17.0431 3.25517 17.049 4.59774 16.075 5.57499C13.5827 8.07518 11.0851 10.5695 8.58954 13.0664C8.3731 13.2828 8.15863 13.5012 7.94023 13.715C7.52834 14.1171 7.04693 14.14 6.6967 13.7767C6.36155 13.4297 6.38909 12.945 6.77868 12.5548C8.28391 11.0463 9.79175 9.54039 11.2989 8.0332C11.863 7.46915 12.4277 6.9051 12.9911 6.34039C13.0646 6.26366 13.1347 6.18299 13.1898 6.1233ZM14.4425 4.91519C14.6144 4.73416 14.7987 4.5479 14.9725 4.35376C15.2165 4.08157 15.2309 3.7661 14.9771 3.50309C14.4248 2.93052 13.8621 2.36712 13.2889 1.81619C13.0265 1.56368 12.713 1.58729 12.4389 1.83521C12.2454 2.01033 12.0558 2.19069 11.8722 2.36188C12.7353 3.21976 13.5696 4.04812 14.4425 4.91519Z" fill="#E8B5B5"/>
<path d="M12.2696 16.7963C11.0582 16.7963 9.84683 16.8009 8.63543 16.7944C8.00186 16.7911 7.60506 16.248 7.81297 15.6886C7.93299 15.3652 8.22355 15.158 8.60133 15.1573C11.0458 15.154 13.4909 15.1534 15.9353 15.1573C16.4423 15.158 16.803 15.5207 16.7938 15.9909C16.7853 16.4474 16.4292 16.7911 15.9366 16.7937C14.7141 16.8003 13.4922 16.7963 12.2696 16.7963Z" fill="#E8B5B5"/>
</svg>
