<svg width="28" height="28" viewBox="0 0 28 28" fill="none" xmlns="http://www.w3.org/2000/svg">
<path d="M17.0234 5.65598C16.4814 5.55025 15.9562 5.90398 15.8505 6.44606C15.7448 6.98813 16.0985 7.51327 16.6406 7.61899L17.0234 5.65598ZM20.5325 11.5109C20.6382 12.053 21.1634 12.4067 21.7054 12.301C22.2475 12.1953 22.6012 11.6701 22.4955 11.1281L20.5325 11.5109ZM16.9424 0.902594C16.3935 0.841638 15.8991 1.2372 15.8381 1.78611C15.7772 2.33502 16.1727 2.82942 16.7216 2.89037L16.9424 0.902594ZM25.2613 11.4191C25.3229 11.968 25.8178 12.3629 26.3666 12.3012C26.9155 12.2396 27.3104 11.7447 27.2488 11.1958L25.2613 11.4191ZM25.072 20.7655L24.0723 20.7412C24.0721 20.7493 24.072 20.7574 24.072 20.7655H25.072ZM25.072 24.3215H24.072L24.072 24.3277L25.072 24.3215ZM22.488 26.6965L22.38 27.6906C22.3859 27.6913 22.3918 27.6919 22.3977 27.6924L22.488 26.6965ZM12.259 23.0575L12.8031 22.2184L12.7953 22.2135L12.259 23.0575ZM5.148 15.9465L5.99204 15.4101L5.98729 15.4028L5.148 15.9465ZM1.509 5.66548L0.513044 5.75532C0.513511 5.7605 0.514019 5.76568 0.514568 5.77086L1.509 5.66548ZM3.868 3.08148V2.08148L3.86698 2.08148L3.868 3.08148ZM7.424 3.08148V4.08153L7.43385 4.08144L7.424 3.08148ZM9.795 5.12048L10.7865 4.98968L10.7852 4.98051L9.795 5.12048ZM10.625 8.45148L9.68813 8.80117L9.68884 8.80306L10.625 8.45148ZM10.092 10.9515L10.7991 11.6586L10.8034 11.6543L10.092 10.9515ZM8.587 12.4565L7.87989 11.7494C7.56159 12.0677 7.49519 12.5594 7.7177 12.9508L8.587 12.4565ZM15.699 19.5685L15.2047 20.4378C15.596 20.6603 16.0878 20.5939 16.4061 20.2756L15.699 19.5685ZM17.204 18.0635L16.5012 17.3521L16.4969 17.3564L17.204 18.0635ZM19.704 17.5305L19.3524 18.4666L19.3543 18.4674L19.704 17.5305ZM23.035 18.3605L23.1756 17.3704L23.1658 17.3691L23.035 18.3605ZM16.6406 7.61899C18.6092 8.00295 20.1485 9.54224 20.5325 11.5109L22.4955 11.1281C21.9557 8.36008 19.7914 6.19583 17.0234 5.65598L16.6406 7.61899ZM16.7216 2.89037C21.2112 3.38894 24.757 6.93019 25.2613 11.4191L27.2488 11.1958C26.6401 5.7782 22.3608 1.5043 16.9424 0.902594L16.7216 2.89037ZM24.072 20.7655V24.3215H26.072V20.7655H24.072ZM24.072 24.3277C24.0744 24.714 23.9136 25.0834 23.6291 25.3448L24.9825 26.8173C25.6822 26.1742 26.0779 25.2656 26.072 24.3153L24.072 24.3277ZM23.6291 25.3448C23.3447 25.6063 22.9631 25.7355 22.5783 25.7006L22.3977 27.6924C23.3441 27.7782 24.2828 27.4604 24.9825 26.8173L23.6291 25.3448ZM22.596 25.7023C19.1042 25.3229 15.75 24.1296 12.8031 22.2185L11.7149 23.8965C14.9243 25.9779 18.5771 27.2774 22.38 27.6906L22.596 25.7023ZM12.7953 22.2135C10.0557 20.4725 7.73294 18.1498 5.99201 15.4102L4.30399 16.4828C6.20239 19.4703 8.73523 22.0031 11.7227 23.9015L12.7953 22.2135ZM5.98729 15.4028C4.0688 12.4412 2.87526 9.06916 2.50343 5.56011L0.514568 5.77086C0.919509 9.59243 2.21936 13.2648 4.30871 16.4902L5.98729 15.4028ZM2.50496 5.57565C2.47039 5.19242 2.59846 4.8123 2.85789 4.52812L1.38083 3.17968C0.742946 3.87841 0.428049 4.81304 0.513044 5.75532L2.50496 5.57565ZM2.85789 4.52812C3.11732 4.24395 3.48423 4.08188 3.86902 4.08148L3.86698 2.08148C2.92087 2.08245 2.01872 2.48095 1.38083 3.17968L2.85789 4.52812ZM3.868 4.08148H7.424V2.08148H3.868V4.08148ZM7.43385 4.08144C8.12198 4.07466 8.70852 4.57907 8.80485 5.26046L10.7852 4.98051C10.5483 3.3051 9.10614 2.06487 7.41416 2.08153L7.43385 4.08144ZM8.80359 5.25128C8.9636 6.46415 9.26034 7.65502 9.68813 8.80117L11.5619 8.1018C11.1868 7.097 10.9267 6.05299 10.7864 4.98969L8.80359 5.25128ZM9.68884 8.80306C9.87689 9.30379 9.75657 9.86817 9.38064 10.2487L10.8034 11.6543C11.7277 10.7188 12.0235 9.33109 11.5612 8.09991L9.68884 8.80306ZM9.38489 10.2444L7.87989 11.7494L9.29411 13.1636L10.7991 11.6586L9.38489 10.2444ZM7.7177 12.9508C9.49401 16.0748 12.0807 18.6615 15.2047 20.4378L16.1933 18.6992C13.3822 17.1008 11.0547 14.7733 9.4563 11.9622L7.7177 12.9508ZM16.4061 20.2756L17.9111 18.7706L16.4969 17.3564L14.9919 18.8614L16.4061 20.2756ZM17.9068 18.7748C18.2873 18.3989 18.8517 18.2786 19.3524 18.4666L20.0556 16.5943C18.8244 16.1319 17.4367 16.4278 16.5012 17.3521L17.9068 18.7748ZM19.3543 18.4674C20.5005 18.8951 21.6913 19.1919 22.9042 19.3519L23.1658 17.3691C22.1025 17.2288 21.0585 16.9686 20.0537 16.5936L19.3543 18.4674ZM22.8944 19.3506C23.5829 19.4483 24.0892 20.046 24.0723 20.7412L26.0717 20.7898C26.1132 19.0804 24.8684 17.6108 23.1756 17.3704L22.8944 19.3506Z" fill="#E8B5B5"/>
</svg>
