<svg width="22" height="19" viewBox="0 0 22 19" fill="none" xmlns="http://www.w3.org/2000/svg">
<path d="M21.4677 3.89367C21.1264 3.13173 20.6342 2.44126 20.0187 1.86092C19.4028 1.27885 18.6766 0.816288 17.8796 0.498386C17.0532 0.167432 16.1668 -0.0019684 15.2719 1.7256e-05C14.0164 1.7256e-05 12.7915 0.331444 11.727 0.957474C11.4724 1.10723 11.2305 1.27172 11.0013 1.45093C10.7721 1.27172 10.5301 1.10723 10.2755 0.957474C9.21101 0.331444 7.9861 1.7256e-05 6.73063 1.7256e-05C5.82659 1.7256e-05 4.95057 0.166958 4.12293 0.498386C3.3233 0.817538 2.60261 1.27663 1.98379 1.86092C1.36751 2.4406 0.875206 3.13124 0.534783 3.89367C0.180808 4.68664 0 5.52871 0 6.39533C0 7.21285 0.173168 8.06474 0.516957 8.93137C0.804722 9.65559 1.21727 10.4068 1.74441 11.1654C2.57969 12.3659 3.7282 13.618 5.15429 14.8872C7.51753 16.9912 9.85784 18.4446 9.95716 18.5035L10.5607 18.8766C10.8281 19.0411 11.1719 19.0411 11.4393 18.8766L12.0428 18.5035C12.1421 18.4421 14.4799 16.9912 16.8457 14.8872C18.2718 13.618 19.4203 12.3659 20.2556 11.1654C20.7827 10.4068 21.1978 9.65559 21.483 8.93137C21.8268 8.06474 22 7.21285 22 6.39533C22.0025 5.52871 21.8217 4.68664 21.4677 3.89367Z" fill="white"/>
</svg>
