<svg width="17" height="17" viewBox="0 0 17 17" fill="none" xmlns="http://www.w3.org/2000/svg">
<path d="M11.6893 7.79333C10.2175 7.79333 8.74504 7.79001 7.27325 7.79798C7.07135 7.79931 6.97106 7.74817 6.88073 7.54892C6.43773 6.5706 5.67062 6.03595 4.58803 6.04259C3.52072 6.04857 2.76423 6.5799 2.32787 7.54759C2.2402 7.74153 2.14457 7.80795 1.93735 7.79931C1.5508 7.78271 1.16226 7.78669 0.77572 7.79732C0.308812 7.8106 0.0106012 8.08623 0.00130293 8.4927C-0.00799539 8.9098 0.300842 9.20668 0.778377 9.2193C1.1875 9.22992 1.59796 9.21 2.00642 9.23125C2.10604 9.23657 2.2495 9.32756 2.29002 9.41655C2.74165 10.4088 3.49481 10.9687 4.59069 10.974C5.70117 10.9793 6.47692 10.4234 6.90663 9.40526C6.99895 9.18542 7.15171 9.22328 7.30978 9.22328C10.2095 9.22195 13.1093 9.22328 16.009 9.22063C16.1737 9.22063 16.3438 9.21398 16.5012 9.17347C16.8047 9.0951 17.0006 8.81681 17 8.50798C16.9993 8.19914 16.802 7.92285 16.4992 7.84315C16.3517 7.80462 16.1937 7.79665 16.0402 7.79599C14.589 7.79201 13.1392 7.79333 11.6893 7.79333ZM5.658 8.51462C5.65534 9.09643 5.18179 9.56998 4.60463 9.56931C4.02415 9.56865 3.54861 9.09908 3.53998 8.5186C3.53134 7.93679 4.03146 7.438 4.61792 7.44597C5.19441 7.45328 5.66066 7.93214 5.658 8.51462Z" fill="#E8B5B5"/>
<path d="M9.99776 15.2326C10.0429 15.3343 10.0801 15.4259 10.1226 15.5149C10.5816 16.4713 11.34 17.002 12.402 17C13.4647 16.998 14.2298 16.4687 14.6675 15.501C14.7598 15.2964 14.8555 15.2167 15.0793 15.2267C15.4765 15.2453 15.8763 15.2393 16.2741 15.228C16.7045 15.216 17.0014 14.9205 16.9994 14.526C16.9974 14.1341 16.6939 13.8326 16.2688 13.8233C15.7826 13.8127 15.2958 13.8206 14.7897 13.8206C14.7532 13.7383 14.72 13.6606 14.6848 13.5829C14.2411 12.5972 13.4687 12.0593 12.3987 12.0559C11.3427 12.0526 10.5643 12.58 10.1286 13.5497C10.0276 13.7755 9.91142 13.824 9.68959 13.8233C6.76792 13.8173 3.84626 13.8186 0.92526 13.8213C0.772502 13.8213 0.612438 13.8279 0.468978 13.8731C0.156156 13.9727 -0.0284821 14.2782 0.00406201 14.5951C0.0372703 14.9271 0.29231 15.1855 0.631698 15.22C0.763203 15.2333 0.896701 15.23 1.02953 15.23C3.9067 15.23 6.78386 15.23 9.66169 15.23C9.77128 15.2326 9.88153 15.2326 9.99776 15.2326ZM12.3808 13.4753C12.9666 13.4693 13.4428 13.9242 13.4601 14.5061C13.4773 15.0832 12.9752 15.5959 12.3954 15.5953C11.8182 15.5946 11.3454 15.1197 11.342 14.5379C11.3387 13.9482 11.795 13.4812 12.3808 13.4753Z" fill="#E8B5B5"/>
<path d="M14.789 3.19461C15.2459 3.19461 15.7095 3.1966 16.1731 3.19394C16.6752 3.19062 16.9993 2.91101 16.9987 2.48594C16.9987 2.06021 16.6812 1.78923 16.1705 1.78392C15.7945 1.77994 15.418 1.77529 15.042 1.78591C14.8674 1.79056 14.7671 1.74806 14.6914 1.57205C14.261 0.56717 13.4866 0.018569 12.3973 0.0172405C11.3074 0.0159121 10.529 0.567169 10.1026 1.57006C10.0063 1.79654 9.86354 1.78392 9.6882 1.78326C6.81103 1.78259 3.93387 1.78326 1.05604 1.78326C0.989623 1.78326 0.923206 1.78259 0.85679 1.78326C0.320144 1.78791 -0.00264039 2.05424 1.62729e-05 2.48993C0.00267293 2.92296 0.332099 3.19461 0.863431 3.19461C3.7851 3.19527 6.70676 3.19461 9.62776 3.19461C9.7493 3.19461 9.87018 3.19461 9.99969 3.19461C10.4347 4.31306 11.2257 4.97391 12.4359 4.95664C13.6008 4.94004 14.3653 4.29181 14.789 3.19461ZM11.342 2.49657C11.338 1.91343 11.7983 1.4359 12.3781 1.42129C12.9566 1.40667 13.466 1.91078 13.4607 2.49192C13.4553 3.07041 12.9798 3.53998 12.398 3.54064C11.8056 3.54197 11.346 3.08768 11.342 2.49657Z" fill="#E8B5B5"/>
</svg>
