<svg width="17" height="17" viewBox="0 0 17 17" fill="none" xmlns="http://www.w3.org/2000/svg">
<path d="M16.5046 6.70125H15.8333V6.66667H8.33333V10H13.0429C12.3558 11.9404 10.5096 13.3333 8.33333 13.3333C5.57208 13.3333 3.33333 11.0946 3.33333 8.33333C3.33333 5.57208 5.57208 3.33333 8.33333 3.33333C9.60792 3.33333 10.7675 3.81417 11.6504 4.59958L14.0075 2.2425C12.5192 0.855417 10.5283 0 8.33333 0C3.73125 0 0 3.73125 0 8.33333C0 12.9354 3.73125 16.6667 8.33333 16.6667C12.9354 16.6667 16.6667 12.9354 16.6667 8.33333C16.6667 7.77458 16.6092 7.22917 16.5046 6.70125Z" fill="#FFC107"/>
<path d="M0.960846 4.45458L3.69876 6.4625C4.4396 4.62833 6.23376 3.33333 8.33335 3.33333C9.60793 3.33333 10.7675 3.81417 11.6504 4.59958L14.0075 2.2425C12.5192 0.855416 10.5283 0 8.33335 0C5.13251 0 2.35668 1.80708 0.960846 4.45458Z" fill="#FF3D00"/>
<path d="M8.33333 16.6666C10.4858 16.6666 12.4417 15.8429 13.9204 14.5033L11.3412 12.3208C10.4765 12.9785 9.41977 13.3342 8.33333 13.3333C6.16583 13.3333 4.32541 11.9512 3.63208 10.0225L0.914581 12.1162C2.29375 14.815 5.09458 16.6666 8.33333 16.6666Z" fill="#4CAF50"/>
<path d="M16.5046 6.70121H15.8333V6.66663H8.33334V9.99996H13.0429C12.7143 10.9235 12.1222 11.7304 11.34 12.3212L11.3413 12.3204L13.9204 14.5029C13.7379 14.6687 16.6667 12.5 16.6667 8.33329C16.6667 7.77454 16.6092 7.22913 16.5046 6.70121Z" fill="#1976D2"/>
</svg>
