<svg width="21" height="21" viewBox="0 0 21 21" fill="none" xmlns="http://www.w3.org/2000/svg">
<path d="M16.0585 7.71519C16.0593 11.9477 13.0904 15.4041 9.29053 16.0028C7.8895 16.2236 6.52446 16.1148 5.18723 15.6249C5.0441 15.5726 4.81755 15.6135 4.6826 15.6961C3.33228 16.5246 1.94761 16.6219 0.520405 15.9251C0.0149548 15.6781 -0.0774656 15.3534 0.199796 14.8618C0.83447 13.7389 0.983325 12.5611 0.637361 11.3147C0.426348 10.5549 0.157266 9.79751 0.0664812 9.02052C-0.302383 5.8676 0.869639 3.3289 3.43451 1.52711C6.02392 -0.291856 8.84969 -0.497143 11.664 0.971769C14.5102 2.45786 15.9284 4.91395 16.0585 7.71519ZM1.53294 15.0058C2.57328 15.2609 3.4705 15.1129 4.23849 14.4521C4.57709 14.1609 4.88052 14.1208 5.27801 14.2999C6.6406 14.915 8.05799 15.0262 9.51136 14.6917C13.2483 13.8305 15.5653 10.029 14.5871 6.36978C13.5852 2.62225 9.6643 0.456504 5.97893 1.61299C2.55365 2.68686 0.337199 6.46547 1.56402 10.0347C2.12917 11.6803 2.34918 13.3201 1.53294 15.0058Z" fill="#E8B5B5"/>
<path d="M19.339 19.6114C18.6061 17.9911 18.7345 16.4486 19.294 14.8423C20.0701 12.6111 19.6874 10.4945 18.297 8.57325C18.2095 8.45221 18.104 8.34016 18.0361 8.2093C17.8848 7.91813 17.9363 7.64251 18.1915 7.44131C18.445 7.24093 18.728 7.24992 18.9775 7.45848C19.101 7.56154 19.1999 7.69812 19.294 7.83062C20.9894 10.2106 21.3738 12.7902 20.3834 15.5383C19.8935 16.8976 19.9704 18.176 20.6623 19.4306C20.9682 19.986 20.8758 20.3 20.2934 20.5707C18.9014 21.2193 17.5445 21.1318 16.2466 20.3172C16.0241 20.1782 15.8548 20.1659 15.6111 20.2477C12.8246 21.1809 10.2474 20.7597 7.88537 19.0159C7.7766 18.935 7.66782 18.8491 7.57703 18.7493C7.34312 18.4933 7.32922 18.2095 7.53123 17.9314C7.71934 17.673 8.08575 17.6288 8.37365 17.8153C8.46443 17.8742 8.54377 17.9511 8.63128 18.0165C10.748 19.586 13.0437 19.905 15.4949 18.9472C15.9693 18.7616 16.3071 18.7657 16.7144 19.1092C17.4587 19.7349 18.3362 19.8796 19.339 19.6114Z" fill="#E8B5B5"/>
<path d="M5.37034 8.11848C5.37197 8.65992 4.91887 9.1122 4.3807 9.10812C3.8409 9.10321 3.39843 8.64765 3.40661 8.10458C3.41478 7.56968 3.83599 7.15338 4.37416 7.14766C4.93113 7.14111 5.36952 7.56805 5.37034 8.11848Z" fill="#E8B5B5"/>
<path d="M8.01966 7.14675C8.57745 7.15002 8.9962 7.57941 8.98721 8.13884C8.97903 8.66964 8.55128 9.09984 8.02456 9.10802C7.49294 9.1162 7.02675 8.65737 7.0243 8.12411C7.02266 7.58349 7.47086 7.14348 8.01966 7.14675Z" fill="#E8B5B5"/>
<path d="M10.6638 8.13637C10.6572 7.57776 11.0784 7.14837 11.6346 7.14673C12.1834 7.1451 12.63 7.58757 12.6259 8.12737C12.6218 8.64754 12.1875 9.09002 11.664 9.10719C11.1267 9.12518 10.6711 8.68271 10.6638 8.13637Z" fill="#E8B5B5"/>
</svg>
