<svg width="7" height="10" viewBox="0 0 7 10" fill="none" xmlns="http://www.w3.org/2000/svg">
<path d="M3.06797 9.7753C2.11641 8.51814 0 5.47119 0 3.75973C0 1.68326 1.56698 0 3.5 0C5.43229 0 7 1.68326 7 3.75973C7 5.47119 4.86719 8.51814 3.93203 9.7753C3.70781 10.0749 3.29219 10.0749 3.06797 9.7753ZM3.5 5.01297C4.14349 5.01297 4.66667 4.45097 4.66667 3.75973C4.66667 3.06849 4.14349 2.50649 3.5 2.50649C2.85651 2.50649 2.33333 3.06849 2.33333 3.75973C2.33333 4.45097 2.85651 5.01297 3.5 5.01297Z" fill="#E8B5B5"/>
</svg>
