<svg width="21" height="17" viewBox="0 0 21 17" fill="none" xmlns="http://www.w3.org/2000/svg">
<path d="M10.3479 6.21584C13.0966 6.21584 15.8444 6.20516 18.5932 6.22069C20.0064 6.22846 20.9527 7.42716 20.6431 8.76369C20.4461 9.61394 19.6929 10.2623 18.8203 10.3283C18.7077 10.337 18.5942 10.34 18.4816 10.34C13.0656 10.3409 7.64958 10.3429 2.23358 10.339C1.06691 10.338 0.250632 9.70809 0.0477753 8.67827C-0.195847 7.43686 0.692259 6.26922 1.95696 6.22943C3.07122 6.19449 4.18742 6.21681 5.30362 6.21584C6.98568 6.21487 8.66678 6.21584 10.3479 6.21584Z" fill="#E8B5B5"/>
<path d="M8.26675 4.12611C6.19644 4.12611 4.12613 4.14358 2.0568 4.12029C0.664944 4.10379 -0.271693 2.84782 0.0728728 1.52391C0.314554 0.597952 1.11919 0.00879291 2.18395 0.00588108C4.65803 -0.000913176 7.13211 0.00296926 9.60619 0.00393987C11.2552 0.00393987 12.9053 -0.00964865 14.5543 0.0136459C15.5987 0.0282051 16.4383 0.822163 16.5538 1.83839C16.6664 2.82938 16.0287 3.78543 15.0503 4.04944C14.7902 4.11932 14.5068 4.12514 14.234 4.12611C12.2453 4.13194 10.2555 4.12902 8.26675 4.12902C8.26675 4.12805 8.26675 4.12708 8.26675 4.12611Z" fill="#E8B5B5"/>
<path d="M8.2815 12.4306C10.3673 12.4306 12.4541 12.417 14.54 12.4364C15.5892 12.4461 16.4278 13.2294 16.553 14.2466C16.6743 15.2357 16.0434 16.1908 15.066 16.4703C14.8671 16.5276 14.6526 16.5489 14.4449 16.5489C10.3372 16.5538 6.22963 16.5576 2.12202 16.5489C0.987375 16.546 0.173035 15.821 0.018708 14.7319C-0.119118 13.7584 0.517601 12.7839 1.49986 12.5121C1.75901 12.4403 2.04243 12.4326 2.31517 12.4316C4.30394 12.4248 6.29369 12.4277 8.28246 12.4277C8.2815 12.4287 8.2815 12.4296 8.2815 12.4306Z" fill="#E8B5B5"/>
</svg>
