<svg width="18" height="21" viewBox="0 0 18 21" fill="none" xmlns="http://www.w3.org/2000/svg">
<path d="M8.748 17.4934C6.3699 17.4934 3.99181 17.4992 1.61372 17.4901C0.502192 17.486 -0.240192 16.5632 0.0715273 15.5526C0.159301 15.2687 0.355356 14.9833 0.577662 14.7815C1.97466 13.5075 2.64075 11.9424 2.62599 10.0515C2.61696 8.93427 2.58415 7.79649 2.76708 6.70219C3.17232 4.26914 5.09267 2.37995 7.49866 1.89351C7.78003 1.83608 7.90471 1.74339 7.87272 1.44643C7.84975 1.23069 7.85549 1.00757 7.88174 0.791823C7.93835 0.326704 8.29026 0.0100631 8.73077 0.000219319C9.18851 -0.00962446 9.55108 0.312759 9.62245 0.793464C9.62409 0.806589 9.63066 0.821354 9.62737 0.833659C9.42148 1.69089 9.92843 1.86479 10.6323 2.0748C13.1613 2.82948 14.8438 5.18461 14.8807 7.88098C14.8913 8.63239 14.8913 9.38462 14.8815 10.136C14.8561 11.9809 15.5361 13.51 16.8995 14.7495C17.746 15.5198 17.6968 16.7182 16.774 17.2498C16.4852 17.4163 16.1013 17.4803 15.76 17.4836C13.4221 17.5033 11.0851 17.4942 8.748 17.4934Z" fill="#E8B5B5"/>
<path d="M5.5708 18.3941C7.68557 18.3941 9.79706 18.3941 11.9086 18.3941C11.8413 19.6714 10.3943 20.933 8.92671 20.997C7.29592 21.0675 5.79639 19.9125 5.5708 18.3941Z" fill="#E8B5B5"/>
</svg>
