<svg width="16" height="18" viewBox="0 0 16 18" fill="none" xmlns="http://www.w3.org/2000/svg">
<path d="M7.629 1.47386C6.12265 4.95396 8.61285 8.57779 12.1856 8.63219C12.2387 9.37159 12.3777 10.1029 12.778 10.7342C13.0802 11.2104 13.4489 11.6536 13.8384 12.0626C14.2742 12.5199 14.4488 13.0028 14.2575 13.5125C14.0734 14.0028 13.5912 14.3258 12.9828 14.3265C9.10042 14.3305 5.21871 14.3305 1.33633 14.3258C0.761462 14.3251 0.320236 14.0726 0.0939152 13.5246C-0.116288 13.0156 0.0294439 12.5025 0.500219 12.0787C1.61302 11.0767 2.15632 9.82759 2.157 8.33401C2.15767 7.55095 2.13954 6.7652 2.18856 5.98483C2.35041 3.42143 4.74458 1.30328 7.3053 1.43356C7.40335 1.43759 7.50073 1.45707 7.629 1.47386Z" fill="#E8B5B5"/>
<path d="M8.6061 3.54434C8.63498 1.53901 10.2555 -0.0297916 12.2662 0.000429359C14.2312 0.0293071 15.7913 1.66795 15.7617 3.67261C15.7335 5.60809 14.0956 7.19771 12.156 7.17219C10.1709 7.14533 8.57722 5.51675 8.6061 3.54434Z" fill="#FDE4E4"/>
<path d="M9.76526 15.074C9.65109 16.1559 8.51546 17.1418 7.32878 17.1988C5.99503 17.2626 4.83119 16.3775 4.56055 15.074C6.29791 15.074 8.03125 15.074 9.76526 15.074Z" fill="#E8B5B5"/>
</svg>
