<svg width="18" height="19" viewBox="0 0 18 19" fill="none" xmlns="http://www.w3.org/2000/svg">
<path d="M13.8265 18.0415C12.6635 17.9831 11.5209 17.5738 10.4312 17.0075C7.5283 15.5007 5.16075 13.3543 3.12568 10.8234C1.98805 9.4089 1.02511 7.88524 0.422127 6.16012C0.115001 5.28171 -0.101256 4.38217 0.0487854 3.43614C0.12768 2.936 0.320691 2.49222 0.682057 2.13015C1.20474 1.60747 1.72319 1.07986 2.2515 0.563523C3.001 -0.167663 4.04917 -0.195839 4.80713 0.529007C5.65454 1.33979 6.48787 2.16748 7.29443 3.01912C8.16157 3.93487 7.85444 5.2789 6.69849 5.76495C5.64327 6.20873 5.2495 6.99345 5.67568 8.05571C6.4935 10.0929 7.96503 11.5222 9.99517 12.3379C10.9468 12.7204 11.8302 12.2766 12.2303 11.3298C12.7375 10.1295 14.0752 9.83366 15.0156 10.736C15.8538 11.5405 16.6723 12.3646 17.4803 13.1994C18.184 13.9263 18.1699 14.9872 17.4571 15.7318C16.9217 16.2911 16.368 16.8335 15.8151 17.3752C15.2853 17.8943 14.6204 18.0387 13.8265 18.0415Z" fill="#E8B5B5"/>
</svg>
