<svg width="16" height="19" viewBox="0 0 16 19" fill="none" xmlns="http://www.w3.org/2000/svg">
<path d="M7.72545 18.5753C6.27498 18.576 4.82379 18.5825 3.37332 18.5709C3.02503 18.568 2.66949 18.5412 2.33136 18.4628C1.01731 18.1573 0.134981 17.2061 0.0333978 15.8122C-0.0906792 14.1071 0.113939 12.4302 0.935314 10.8869C1.55497 9.72156 2.51857 9.04313 3.85729 9.00032C4.14898 8.99088 4.46607 9.11278 4.73671 9.24484C5.27656 9.50823 5.77214 9.86958 6.32359 10.1018C7.57525 10.63 8.78264 10.4116 9.93489 9.75929C10.1344 9.6461 10.3361 9.53 10.511 9.38416C11.098 8.89438 11.7496 8.91905 12.4295 9.10916C13.409 9.38343 14.1049 10.0082 14.5635 10.8927C15.403 12.51 15.6192 14.2558 15.4306 16.0357C15.2738 17.5137 13.9961 18.523 12.4026 18.5717C12.354 18.5731 12.3061 18.5746 12.2575 18.5746C10.7476 18.5753 9.23687 18.5746 7.72545 18.5753Z" fill="#E8B5B5"/>
<path d="M3.1607 4.4784C3.15707 1.99903 5.1394 0.00654623 7.61659 1.5857e-05C10.1032 -0.00651451 12.1175 2.00484 12.1088 4.48565C12.1001 6.95994 10.1076 8.94009 7.62675 8.93937C5.1394 8.93864 3.16506 6.96719 3.1607 4.4784Z" fill="#E8B5B5"/>
</svg>
