<svg width="21" height="21" viewBox="0 0 21 21" fill="none" xmlns="http://www.w3.org/2000/svg">
<path d="M10.4668 21C4.66581 20.9836 -0.0220693 16.2613 7.81531e-05 10.4562C0.0222256 4.656 4.74784 -0.026139 10.5538 0.000109829C16.3375 0.0263587 21.0115 4.73557 21 10.5234C20.9885 16.3253 16.2711 21.0172 10.4668 21ZM17.8436 16.0726C20.3774 13.0122 20.7457 7.43428 16.8149 3.72334C13.0884 0.205179 7.17258 0.426654 3.65523 4.26883C0.102613 8.14874 0.908124 13.46 3.15896 16.0554C4.4509 13.6897 4.9406 13.2377 7.89688 11.6776C5.44671 9.63262 5.97989 6.60908 7.44655 5.16293C9.06824 3.56421 11.6414 3.46988 13.3542 4.98903C14.163 5.70595 14.6502 6.6058 14.7667 7.68282C14.9431 9.31845 14.3319 10.6399 13.0613 11.6833C15.4352 12.5749 16.9191 14.1048 17.8436 16.0726ZM10.5562 12.5167C7.79845 12.47 5.18423 14.2376 4.19579 16.801C4.0908 17.0742 4.12935 17.23 4.35 17.4252C7.88294 20.5456 13.0786 20.553 16.6287 17.4474C16.8855 17.2226 16.9002 17.0479 16.7829 16.7543C15.7781 14.2376 13.3296 12.5643 10.5562 12.5167ZM13.5691 8.19713C13.565 6.49342 12.1836 5.12274 10.484 5.13422C8.79508 5.1457 7.44163 6.49998 7.43178 8.18893C7.42194 9.88936 8.79344 11.2691 10.4963 11.2724C12.1976 11.2748 13.5732 9.89839 13.5691 8.19713Z" fill="#E8B5B5"/>
</svg>
