<svg width="18" height="17" viewBox="0 0 18 17" fill="none" xmlns="http://www.w3.org/2000/svg">
<path d="M12.886 10.6676C13.5462 11.3272 14.197 11.9766 14.8464 12.6274C15.5201 13.3024 16.2134 13.9606 16.8608 14.6606C17.5991 15.459 17.2293 16.6979 16.1952 16.9546C15.6474 17.0907 15.1839 16.9141 14.7892 16.5173C13.6021 15.3235 12.4083 14.1358 11.2206 12.942C11.135 12.8558 11.0804 12.7379 11.0225 12.651C7.59674 14.9436 3.51884 13.9243 1.47214 11.2221C-0.68235 8.37703 -0.447902 4.58478 2.01716 2.06312C4.36702 -0.340636 8.2536 -0.681528 10.9598 1.23851C13.8035 3.25557 14.9428 7.22298 12.886 10.6676ZM2.26845 6.95216C2.26508 9.556 4.37107 11.6647 6.97424 11.664C9.57809 11.664 11.6794 9.55533 11.674 6.94811C11.6686 4.35841 9.58078 2.26321 6.98771 2.24435C4.4034 2.22683 2.27182 4.35235 2.26845 6.95216Z" fill="#E8B5B5"/>
</svg>
