<svg width="27" height="21" viewBox="0 0 27 21" fill="none" xmlns="http://www.w3.org/2000/svg">
<path fill-rule="evenodd" clip-rule="evenodd" d="M24.855 3.7716H21.023C20.7006 3.76986 20.394 3.63182 20.179 3.3916C18.179 1.1556 17.43 0.391602 16.614 0.391602H10.6C9.777 0.391602 8.969 1.1506 6.965 3.3916C6.75203 3.62971 6.44745 3.76544 6.128 3.7646H5.84V3.2026C5.8389 2.89228 5.58732 2.64115 5.277 2.6406H3.452C3.14168 2.6417 2.89055 2.89328 2.89 3.2036V3.7666H2.362C1.11519 3.72016 0.0626134 4.6845 0 5.9306V18.3056C0.0482129 19.5834 1.07695 20.606 2.355 20.6466H24.855C26.0915 20.5877 27.0492 19.5426 27 18.3056V5.9306C27.0163 5.3556 26.796 4.79909 26.3906 4.39101C25.9852 3.98294 25.4301 3.75904 24.855 3.7716ZM17.177 16.4626C17.1153 16.639 16.9967 16.7899 16.84 16.8916C15.8585 17.5704 14.6933 17.9335 13.5 17.9326C12.0081 17.9232 10.5745 17.3519 9.485 16.3326C8.47005 15.4052 7.80014 14.1605 7.585 12.8026H6.152C6.03557 12.8004 5.92572 12.7482 5.85035 12.6595C5.77497 12.5707 5.74134 12.4539 5.758 12.3386C5.76242 12.2926 5.77937 12.2487 5.807 12.2116L8.022 9.2376C8.09509 9.14023 8.20975 9.08293 8.3315 9.08293C8.45325 9.08293 8.56791 9.14023 8.641 9.2376L10.905 12.1766C10.978 12.2697 11.0061 12.3904 10.9816 12.5062C10.957 12.622 10.8825 12.721 10.778 12.7766C10.7381 12.8021 10.6912 12.8143 10.644 12.8116H9.183C9.38658 13.736 9.87648 14.5727 10.583 15.2026C12.0584 16.5992 14.3202 16.7442 15.962 15.5476C16.0962 15.4539 16.2553 15.4023 16.419 15.3996C16.6422 15.3973 16.8554 15.4922 17.003 15.6596C17.2091 15.8723 17.2766 16.1836 17.177 16.4626ZM18.963 14.7326L21.157 11.7166V11.7216C21.2265 11.6247 21.2521 11.5031 21.2273 11.3864C21.2026 11.2698 21.1299 11.1689 21.027 11.1086C20.9883 11.0863 20.9446 11.0743 20.9 11.0736H19.413C19.218 9.67734 18.571 8.38337 17.571 7.3896C16.4626 6.37297 15.011 5.81287 13.507 5.8216C12.3102 5.82309 11.1423 6.18937 10.159 6.8716C9.95675 7.00026 9.82236 7.21235 9.79239 7.45017C9.76243 7.68799 9.84 7.92679 10.004 8.1016C10.1524 8.26301 10.3617 8.35478 10.581 8.3546C10.7418 8.35432 10.8988 8.30515 11.031 8.2136C12.6801 7.02733 14.9404 7.18407 16.41 8.5866C17.1269 9.25282 17.6166 10.1273 17.81 11.0866H16.334C16.2872 11.0873 16.2412 11.0993 16.2 11.1216C16.0944 11.1759 16.0183 11.2743 15.9924 11.3902C15.9665 11.5061 15.9935 11.6275 16.066 11.7216L18.344 14.7466C18.3535 14.7622 18.3653 14.7764 18.379 14.7886C18.4612 14.8647 18.572 14.9022 18.6835 14.8915C18.7951 14.8808 18.8968 14.823 18.963 14.7326Z" fill="white"/>
</svg>
