<svg width="20" height="20" viewBox="0 0 20 20" fill="none" xmlns="http://www.w3.org/2000/svg">
<path d="M0 8.48623L4.62355 0L9.24927 8.48623H0ZM4.64413 20C3.57744 20 2.67541 19.6123 1.93804 18.8369C1.19994 18.0599 0.830896 17.1135 0.830896 15.9975C0.830896 14.8633 1.19994 13.9092 1.93804 13.1353C2.67468 12.3614 3.57672 11.9745 4.64413 11.9745C5.71083 11.9745 6.61286 12.3622 7.35023 13.1376C8.08688 13.9145 8.45521 14.8644 8.45521 15.9872C8.45521 17.1101 8.08688 18.0596 7.35023 18.8357C6.61358 19.6119 5.71083 20 4.64413 20ZM4.64522 18.8597C5.40714 18.8597 6.05243 18.5818 6.58109 18.0261C7.10974 17.4696 7.37407 16.79 7.37407 15.9872C7.37407 15.1844 7.10974 14.5052 6.58109 13.9495C6.05243 13.393 5.40714 13.1148 4.64522 13.1148C3.88257 13.1148 3.23692 13.393 2.70827 13.9495C2.17961 14.506 1.91529 15.1848 1.91529 15.9861C1.91529 16.7889 2.17961 17.4685 2.70827 18.025C3.23692 18.5814 3.88257 18.8593 4.64522 18.8585M1.86979 7.34591H7.39898L4.62355 2.3137L1.86979 7.34591ZM11.6455 20V11.9745H19.2709V20H11.6455ZM12.7288 18.8597H18.1876V13.1148H12.7288V18.8597ZM15.4588 8.48737C14.79 7.92633 14.1776 7.40521 13.6215 6.924C13.0654 6.44278 12.5866 5.97564 12.185 5.52255C11.7842 5.06946 11.4726 4.61904 11.2501 4.17128C11.0277 3.72427 10.9165 3.25598 10.9165 2.76641C10.9165 2.08678 11.1281 1.52536 11.5513 1.08216C11.9738 0.638957 12.5122 0.417356 13.1665 0.417356C13.5984 0.417356 14.0021 0.528727 14.3776 0.751468C14.7532 0.97497 15.1132 1.31022 15.4577 1.75723C15.8022 1.32391 16.1694 0.992455 16.5594 0.762871C16.9494 0.532528 17.3531 0.417356 17.7706 0.417356C18.4061 0.417356 18.9366 0.65074 19.3619 1.11751C19.7873 1.58428 20 2.15558 20 2.8314C20 3.30654 19.8888 3.76418 19.6663 4.20434C19.4439 4.64527 19.1323 5.08847 18.7314 5.53395C18.3299 5.97944 17.8511 6.44278 17.295 6.924C16.7389 7.40521 16.1265 7.92633 15.4577 8.48737M15.4577 7.00724C16.7165 5.984 17.6077 5.15423 18.1313 4.51793C18.6549 3.88239 18.9167 3.31756 18.9167 2.82342C18.9167 2.45852 18.8073 2.15672 18.5885 1.91801C18.3696 1.67778 18.0941 1.55767 17.7619 1.55767C17.5286 1.55767 17.3011 1.63179 17.0794 1.78003C16.8577 1.92827 16.5515 2.20879 16.1608 2.62159L15.4577 3.34683L14.7557 2.62159C14.3506 2.19435 14.0415 1.91041 13.8284 1.76977C13.6146 1.62837 13.39 1.55767 13.1546 1.55767C12.8079 1.55767 12.5288 1.66676 12.3172 1.88494C12.1056 2.10236 11.9998 2.40036 11.9998 2.77895C11.9998 3.30273 12.2616 3.88239 12.7852 4.51793C13.3088 5.15423 14.1996 5.984 15.4577 7.00724Z" fill="white"/>
</svg>
